# xmcd
#
# Track frame offsets:
#	150
#	28505
#	49567
#	64732
#	84970
#	112428
#	180758
#	217102
#	242637
#	266613
#	290542
#	304530
#	329822
#
# Disc length: 4797 seconds
#
# Revision: 0
# Processed by: cddbd v1.5.2PL0 Copyright (c) Steve Scherf et al.
# Submitted via: EZCDAudioConverter 2.1.7.1
#
DISCID=ba12bb0d
DTITLE=V/A - Nigeria 70: Sweet Times 
DYEAR=1900
DGENRE=
TTITLE0=Moneyman and The Super 5 International - Life
TTITLE1=Ali Chukwumah and His Peace Makers International - Henrietta
TTITLE2=Don Isaac Ezekiel Combination - Ire
TTITLE3=Dr. Victor Olaiya's International All-Stars - Kinrinjingbin
TTITLE4=Zeal Onyia and His Music - Idegbani
TTITLE5=Admiral Dele Abiodun and His Top Hitters International - It's Time For J
TTITLE5=uju Music
TTITLE6=Eji Oyewole - Unity In Africa
TTITLE7=Tunde Mabadu - Viva Disco [Instrumental]
TTITLE8=Sina Bakare - Inu Mimo
TTITLE9=Soki Ohale's Uzzi - Bisi's Beat
TTITLE10=Bola Johnson and His Easy Life Top Beats - E Ma S'eka
TTITLE11=Etubom Rex Williams and His Nigerian Artistes - Ama Mbre Ewa
TTITLE12=Chief Commander Ebenezer Obey and His International Brothers - Ajoyio
EXTD=
EXTT0=
EXTT1=
EXTT2=
EXTT3=
EXTT4=
EXTT5=
EXTT6=
EXTT7=
EXTT8=
EXTT9=
EXTT10=
EXTT11=
EXTT12=
PLAYORDER=
